<svg width="16" height="13" viewBox="0 0 16 13" fill="none" xmlns="http://www.w3.org/2000/svg">
<rect x="0.5" y="3.5" width="12" height="9" rx="0.5" stroke="#00A3FF"/>
<rect x="7.70711" y="5.87109" width="5.88877" height="4" rx="0.5" transform="rotate(-45 7.70711 5.87109)" fill="white" stroke="white"/>
<path d="M15.5 0.999999C15.5 0.723857 15.2761 0.5 15 0.499999L10.5 0.5C10.2239 0.5 10 0.723857 10 1C10 1.27614 10.2239 1.5 10.5 1.5L14.5 1.5L14.5 5.5C14.5 5.77614 14.7239 6 15 6C15.2761 6 15.5 5.77614 15.5 5.5L15.5 0.999999ZM9.35355 7.35355L15.3536 1.35355L14.6464 0.646446L8.64645 6.64645L9.35355 7.35355Z" fill="#00A3FF"/>
</svg>
